<svg width="72" height="72" viewBox="0 0 72 72" fill="none" xmlns="http://www.w3.org/2000/svg">
<rect width="72" height="72" rx="5" fill="#2197ED"/>
<path d="M10.088 24.08H34.028V29.696H15.74V34.232H30.464V39.848H15.74V50H10.088V24.08ZM61.7716 29.408V31.82H56.1196V29.696H41.4316V34.232H56.4436C57.9076 34.232 59.1556 34.76 60.1876 35.816C61.2436 36.848 61.7716 38.096 61.7716 39.56V44.672C61.7716 46.136 61.2436 47.396 60.1876 48.452C59.1556 49.484 57.9076 50 56.4436 50H41.1796C39.7156 50 38.4556 49.484 37.3996 48.452C36.3676 47.42 35.8516 46.16 35.8516 44.672V42.26H41.4316V44.384H56.1196V39.848H41.1796C39.7156 39.848 38.4556 39.332 37.3996 38.3C36.3676 37.268 35.8516 36.008 35.8516 34.52V29.408C35.8516 27.92 36.3676 26.66 37.3996 25.628C38.4556 24.596 39.7156 24.08 41.1796 24.08H56.4436C57.9076 24.08 59.1556 24.608 60.1876 25.664C61.2436 26.696 61.7716 27.944 61.7716 29.408Z" fill="white"/>
</svg>
